<?xml version="1.0" encoding="utf-8" standalone="no"?>
<!DOCTYPE svg PUBLIC "-//W3C//DTD SVG 1.1//EN"
  "http://www.w3.org/Graphics/SVG/1.1/DTD/svg11.dtd">
<svg height="396pt" version="1.1" viewBox="0 0 576 396" width="576pt" xmlns="http://www.w3.org/2000/svg" xmlns:xlink="http://www.w3.org/1999/xlink">
 <metadata>
  <rdf:RDF xmlns:cc="http://creativecommons.org/ns#" xmlns:dc="http://purl.org/dc/elements/1.1/" xmlns:rdf="http://www.w3.org/1999/02/22-rdf-syntax-ns#">
   <cc:Work>
    <dc:type rdf:resource="http://purl.org/dc/dcmitype/StillImage"/>
    <dc:date>2022-02-23T22:39:23.760191</dc:date>
    <dc:format>image/svg+xml</dc:format>
    <dc:creator>
     <cc:Agent>
      <dc:title>Matplotlib v3.4.3, https://matplotlib.org/</dc:title>
     </cc:Agent>
    </dc:creator>
   </cc:Work>
  </rdf:RDF>
 </metadata>
 <defs>
  <style type="text/css">*{stroke-linecap:butt;stroke-linejoin:round;}</style>
 </defs>
 <g id="figure_1">
  <g id="patch_1">
   <path d="M 0 396 
L 576 396 
L 576 0 
L 0 0 
z
" style="fill:#ffffff;"/>
  </g>
  <g id="axes_1">
   <g id="patch_2">
    <path d="M 72 352.44 
L 518.4 352.44 
L 518.4 47.52 
L 72 47.52 
z
" style="fill:#ffffff;"/>
   </g>
   <g id="matplotlib.axis_1">
    <g id="xtick_1">
     <g id="line2d_1">
      <path clip-path="url(#pd224c06bf9)" d="M 92.290909 352.44 
L 92.290909 47.52 
" style="fill:none;stroke:#cccccc;stroke-linecap:round;stroke-opacity:0.3;"/>
     </g>
     <g id="line2d_2"/>
     <g id="text_1">
      <!-- 0 -->
      <g style="fill:#262626;opacity:0.7;" transform="translate(90.344581 364.450469)scale(0.07 -0.07)">
       <defs>
        <path d="M 266 2259 
Q 266 3072 433 3567 
Q 600 4063 929 4331 
Q 1259 4600 1759 4600 
Q 2128 4600 2406 4451 
Q 2684 4303 2865 4023 
Q 3047 3744 3150 3342 
Q 3253 2941 3253 2259 
Q 3253 1453 3087 958 
Q 2922 463 2592 192 
Q 2263 -78 1759 -78 
Q 1097 -78 719 397 
Q 266 969 266 2259 
z
M 844 2259 
Q 844 1131 1108 757 
Q 1372 384 1759 384 
Q 2147 384 2411 759 
Q 2675 1134 2675 2259 
Q 2675 3391 2411 3762 
Q 2147 4134 1753 4134 
Q 1366 4134 1134 3806 
Q 844 3388 844 2259 
z
" id="ArialMT-30" transform="scale(0.015625)"/>
       </defs>
       <use xlink:href="#ArialMT-30"/>
      </g>
     </g>
    </g>
    <g id="xtick_2">
     <g id="line2d_3">
      <path clip-path="url(#pd224c06bf9)" d="M 154.724476 352.44 
L 154.724476 47.52 
" style="fill:none;stroke:#cccccc;stroke-linecap:round;stroke-opacity:0.3;"/>
     </g>
     <g id="line2d_4"/>
     <g id="text_2">
      <!-- 2 -->
      <g style="fill:#262626;opacity:0.7;" transform="translate(152.778147 364.450469)scale(0.07 -0.07)">
       <defs>
        <path d="M 3222 541 
L 3222 0 
L 194 0 
Q 188 203 259 391 
Q 375 700 629 1000 
Q 884 1300 1366 1694 
Q 2113 2306 2375 2664 
Q 2638 3022 2638 3341 
Q 2638 3675 2398 3904 
Q 2159 4134 1775 4134 
Q 1369 4134 1125 3890 
Q 881 3647 878 3216 
L 300 3275 
Q 359 3922 746 4261 
Q 1134 4600 1788 4600 
Q 2447 4600 2831 4234 
Q 3216 3869 3216 3328 
Q 3216 3053 3103 2787 
Q 2991 2522 2730 2228 
Q 2469 1934 1863 1422 
Q 1356 997 1212 845 
Q 1069 694 975 541 
L 3222 541 
z
" id="ArialMT-32" transform="scale(0.015625)"/>
       </defs>
       <use xlink:href="#ArialMT-32"/>
      </g>
     </g>
    </g>
    <g id="xtick_3">
     <g id="line2d_5">
      <path clip-path="url(#pd224c06bf9)" d="M 217.158042 352.44 
L 217.158042 47.52 
" style="fill:none;stroke:#cccccc;stroke-linecap:round;stroke-opacity:0.3;"/>
     </g>
     <g id="line2d_6"/>
     <g id="text_3">
      <!-- 4 -->
      <g style="fill:#262626;opacity:0.7;" transform="translate(215.211714 364.450469)scale(0.07 -0.07)">
       <defs>
        <path d="M 2069 0 
L 2069 1097 
L 81 1097 
L 81 1613 
L 2172 4581 
L 2631 4581 
L 2631 1613 
L 3250 1613 
L 3250 1097 
L 2631 1097 
L 2631 0 
L 2069 0 
z
M 2069 1613 
L 2069 3678 
L 634 1613 
L 2069 1613 
z
" id="ArialMT-34" transform="scale(0.015625)"/>
       </defs>
       <use xlink:href="#ArialMT-34"/>
      </g>
     </g>
    </g>
    <g id="xtick_4">
     <g id="line2d_7">
      <path clip-path="url(#pd224c06bf9)" d="M 279.591608 352.44 
L 279.591608 47.52 
" style="fill:none;stroke:#cccccc;stroke-linecap:round;stroke-opacity:0.3;"/>
     </g>
     <g id="line2d_8"/>
     <g id="text_4">
      <!-- 6 -->
      <g style="fill:#262626;opacity:0.7;" transform="translate(277.64528 364.450469)scale(0.07 -0.07)">
       <defs>
        <path d="M 3184 3459 
L 2625 3416 
Q 2550 3747 2413 3897 
Q 2184 4138 1850 4138 
Q 1581 4138 1378 3988 
Q 1113 3794 959 3422 
Q 806 3050 800 2363 
Q 1003 2672 1297 2822 
Q 1591 2972 1913 2972 
Q 2475 2972 2870 2558 
Q 3266 2144 3266 1488 
Q 3266 1056 3080 686 
Q 2894 316 2569 119 
Q 2244 -78 1831 -78 
Q 1128 -78 684 439 
Q 241 956 241 2144 
Q 241 3472 731 4075 
Q 1159 4600 1884 4600 
Q 2425 4600 2770 4297 
Q 3116 3994 3184 3459 
z
M 888 1484 
Q 888 1194 1011 928 
Q 1134 663 1356 523 
Q 1578 384 1822 384 
Q 2178 384 2434 671 
Q 2691 959 2691 1453 
Q 2691 1928 2437 2201 
Q 2184 2475 1800 2475 
Q 1419 2475 1153 2201 
Q 888 1928 888 1484 
z
" id="ArialMT-36" transform="scale(0.015625)"/>
       </defs>
       <use xlink:href="#ArialMT-36"/>
      </g>
     </g>
    </g>
    <g id="xtick_5">
     <g id="line2d_9">
      <path clip-path="url(#pd224c06bf9)" d="M 342.025175 352.44 
L 342.025175 47.52 
" style="fill:none;stroke:#cccccc;stroke-linecap:round;stroke-opacity:0.3;"/>
     </g>
     <g id="line2d_10"/>
     <g id="text_5">
      <!-- 8 -->
      <g style="fill:#262626;opacity:0.7;" transform="translate(340.078847 364.450469)scale(0.07 -0.07)">
       <defs>
        <path d="M 1131 2484 
Q 781 2613 612 2850 
Q 444 3088 444 3419 
Q 444 3919 803 4259 
Q 1163 4600 1759 4600 
Q 2359 4600 2725 4251 
Q 3091 3903 3091 3403 
Q 3091 3084 2923 2848 
Q 2756 2613 2416 2484 
Q 2838 2347 3058 2040 
Q 3278 1734 3278 1309 
Q 3278 722 2862 322 
Q 2447 -78 1769 -78 
Q 1091 -78 675 323 
Q 259 725 259 1325 
Q 259 1772 486 2073 
Q 713 2375 1131 2484 
z
M 1019 3438 
Q 1019 3113 1228 2906 
Q 1438 2700 1772 2700 
Q 2097 2700 2305 2904 
Q 2513 3109 2513 3406 
Q 2513 3716 2298 3927 
Q 2084 4138 1766 4138 
Q 1444 4138 1231 3931 
Q 1019 3725 1019 3438 
z
M 838 1322 
Q 838 1081 952 856 
Q 1066 631 1291 507 
Q 1516 384 1775 384 
Q 2178 384 2440 643 
Q 2703 903 2703 1303 
Q 2703 1709 2433 1975 
Q 2163 2241 1756 2241 
Q 1359 2241 1098 1978 
Q 838 1716 838 1322 
z
" id="ArialMT-38" transform="scale(0.015625)"/>
       </defs>
       <use xlink:href="#ArialMT-38"/>
      </g>
     </g>
    </g>
    <g id="xtick_6">
     <g id="line2d_11">
      <path clip-path="url(#pd224c06bf9)" d="M 404.458741 352.44 
L 404.458741 47.52 
" style="fill:none;stroke:#cccccc;stroke-linecap:round;stroke-opacity:0.3;"/>
     </g>
     <g id="line2d_12"/>
     <g id="text_6">
      <!-- 10 -->
      <g style="fill:#262626;opacity:0.7;" transform="translate(400.566085 364.450469)scale(0.07 -0.07)">
       <defs>
        <path d="M 2384 0 
L 1822 0 
L 1822 3584 
Q 1619 3391 1289 3197 
Q 959 3003 697 2906 
L 697 3450 
Q 1169 3672 1522 3987 
Q 1875 4303 2022 4600 
L 2384 4600 
L 2384 0 
z
" id="ArialMT-31" transform="scale(0.015625)"/>
       </defs>
       <use xlink:href="#ArialMT-31"/>
       <use x="55.615234" xlink:href="#ArialMT-30"/>
      </g>
     </g>
    </g>
    <g id="xtick_7">
     <g id="line2d_13">
      <path clip-path="url(#pd224c06bf9)" d="M 466.892308 352.44 
L 466.892308 47.52 
" style="fill:none;stroke:#cccccc;stroke-linecap:round;stroke-opacity:0.3;"/>
     </g>
     <g id="line2d_14"/>
     <g id="text_7">
      <!-- 12 -->
      <g style="fill:#262626;opacity:0.7;" transform="translate(462.999651 364.450469)scale(0.07 -0.07)">
       <use xlink:href="#ArialMT-31"/>
       <use x="55.615234" xlink:href="#ArialMT-32"/>
      </g>
     </g>
    </g>
    <g id="text_8">
     <!-- Number of clusters -->
     <g style="fill:#262626;" transform="translate(249.048984 377.715312)scale(0.11 -0.11)">
      <defs>
       <path d="M 488 0 
L 488 4581 
L 1109 4581 
L 3516 984 
L 3516 4581 
L 4097 4581 
L 4097 0 
L 3475 0 
L 1069 3600 
L 1069 0 
L 488 0 
z
" id="ArialMT-4e" transform="scale(0.015625)"/>
       <path d="M 2597 0 
L 2597 488 
Q 2209 -75 1544 -75 
Q 1250 -75 995 37 
Q 741 150 617 320 
Q 494 491 444 738 
Q 409 903 409 1263 
L 409 3319 
L 972 3319 
L 972 1478 
Q 972 1038 1006 884 
Q 1059 663 1231 536 
Q 1403 409 1656 409 
Q 1909 409 2131 539 
Q 2353 669 2445 892 
Q 2538 1116 2538 1541 
L 2538 3319 
L 3100 3319 
L 3100 0 
L 2597 0 
z
" id="ArialMT-75" transform="scale(0.015625)"/>
       <path d="M 422 0 
L 422 3319 
L 925 3319 
L 925 2853 
Q 1081 3097 1340 3245 
Q 1600 3394 1931 3394 
Q 2300 3394 2536 3241 
Q 2772 3088 2869 2813 
Q 3263 3394 3894 3394 
Q 4388 3394 4653 3120 
Q 4919 2847 4919 2278 
L 4919 0 
L 4359 0 
L 4359 2091 
Q 4359 2428 4304 2576 
Q 4250 2725 4106 2815 
Q 3963 2906 3769 2906 
Q 3419 2906 3187 2673 
Q 2956 2441 2956 1928 
L 2956 0 
L 2394 0 
L 2394 2156 
Q 2394 2531 2256 2718 
Q 2119 2906 1806 2906 
Q 1569 2906 1367 2781 
Q 1166 2656 1075 2415 
Q 984 2175 984 1722 
L 984 0 
L 422 0 
z
" id="ArialMT-6d" transform="scale(0.015625)"/>
       <path d="M 941 0 
L 419 0 
L 419 4581 
L 981 4581 
L 981 2947 
Q 1338 3394 1891 3394 
Q 2197 3394 2470 3270 
Q 2744 3147 2920 2923 
Q 3097 2700 3197 2384 
Q 3297 2069 3297 1709 
Q 3297 856 2875 390 
Q 2453 -75 1863 -75 
Q 1275 -75 941 416 
L 941 0 
z
M 934 1684 
Q 934 1088 1097 822 
Q 1363 388 1816 388 
Q 2184 388 2453 708 
Q 2722 1028 2722 1663 
Q 2722 2313 2464 2622 
Q 2206 2931 1841 2931 
Q 1472 2931 1203 2611 
Q 934 2291 934 1684 
z
" id="ArialMT-62" transform="scale(0.015625)"/>
       <path d="M 2694 1069 
L 3275 997 
Q 3138 488 2766 206 
Q 2394 -75 1816 -75 
Q 1088 -75 661 373 
Q 234 822 234 1631 
Q 234 2469 665 2931 
Q 1097 3394 1784 3394 
Q 2450 3394 2872 2941 
Q 3294 2488 3294 1666 
Q 3294 1616 3291 1516 
L 816 1516 
Q 847 969 1125 678 
Q 1403 388 1819 388 
Q 2128 388 2347 550 
Q 2566 713 2694 1069 
z
M 847 1978 
L 2700 1978 
Q 2663 2397 2488 2606 
Q 2219 2931 1791 2931 
Q 1403 2931 1139 2672 
Q 875 2413 847 1978 
z
" id="ArialMT-65" transform="scale(0.015625)"/>
       <path d="M 416 0 
L 416 3319 
L 922 3319 
L 922 2816 
Q 1116 3169 1280 3281 
Q 1444 3394 1641 3394 
Q 1925 3394 2219 3213 
L 2025 2691 
Q 1819 2813 1613 2813 
Q 1428 2813 1281 2702 
Q 1134 2591 1072 2394 
Q 978 2094 978 1738 
L 978 0 
L 416 0 
z
" id="ArialMT-72" transform="scale(0.015625)"/>
       <path id="ArialMT-20" transform="scale(0.015625)"/>
       <path d="M 213 1659 
Q 213 2581 725 3025 
Q 1153 3394 1769 3394 
Q 2453 3394 2887 2945 
Q 3322 2497 3322 1706 
Q 3322 1066 3130 698 
Q 2938 331 2570 128 
Q 2203 -75 1769 -75 
Q 1072 -75 642 372 
Q 213 819 213 1659 
z
M 791 1659 
Q 791 1022 1069 705 
Q 1347 388 1769 388 
Q 2188 388 2466 706 
Q 2744 1025 2744 1678 
Q 2744 2294 2464 2611 
Q 2184 2928 1769 2928 
Q 1347 2928 1069 2612 
Q 791 2297 791 1659 
z
" id="ArialMT-6f" transform="scale(0.015625)"/>
       <path d="M 556 0 
L 556 2881 
L 59 2881 
L 59 3319 
L 556 3319 
L 556 3672 
Q 556 4006 616 4169 
Q 697 4388 901 4523 
Q 1106 4659 1475 4659 
Q 1713 4659 2000 4603 
L 1916 4113 
Q 1741 4144 1584 4144 
Q 1328 4144 1222 4034 
Q 1116 3925 1116 3625 
L 1116 3319 
L 1763 3319 
L 1763 2881 
L 1116 2881 
L 1116 0 
L 556 0 
z
" id="ArialMT-66" transform="scale(0.015625)"/>
       <path d="M 2588 1216 
L 3141 1144 
Q 3050 572 2676 248 
Q 2303 -75 1759 -75 
Q 1078 -75 664 370 
Q 250 816 250 1647 
Q 250 2184 428 2587 
Q 606 2991 970 3192 
Q 1334 3394 1763 3394 
Q 2303 3394 2647 3120 
Q 2991 2847 3088 2344 
L 2541 2259 
Q 2463 2594 2264 2762 
Q 2066 2931 1784 2931 
Q 1359 2931 1093 2626 
Q 828 2322 828 1663 
Q 828 994 1084 691 
Q 1341 388 1753 388 
Q 2084 388 2306 591 
Q 2528 794 2588 1216 
z
" id="ArialMT-63" transform="scale(0.015625)"/>
       <path d="M 409 0 
L 409 4581 
L 972 4581 
L 972 0 
L 409 0 
z
" id="ArialMT-6c" transform="scale(0.015625)"/>
       <path d="M 197 991 
L 753 1078 
Q 800 744 1014 566 
Q 1228 388 1613 388 
Q 2000 388 2187 545 
Q 2375 703 2375 916 
Q 2375 1106 2209 1216 
Q 2094 1291 1634 1406 
Q 1016 1563 777 1677 
Q 538 1791 414 1992 
Q 291 2194 291 2438 
Q 291 2659 392 2848 
Q 494 3038 669 3163 
Q 800 3259 1026 3326 
Q 1253 3394 1513 3394 
Q 1903 3394 2198 3281 
Q 2494 3169 2634 2976 
Q 2775 2784 2828 2463 
L 2278 2388 
Q 2241 2644 2061 2787 
Q 1881 2931 1553 2931 
Q 1166 2931 1000 2803 
Q 834 2675 834 2503 
Q 834 2394 903 2306 
Q 972 2216 1119 2156 
Q 1203 2125 1616 2013 
Q 2213 1853 2448 1751 
Q 2684 1650 2818 1456 
Q 2953 1263 2953 975 
Q 2953 694 2789 445 
Q 2625 197 2315 61 
Q 2006 -75 1616 -75 
Q 969 -75 630 194 
Q 291 463 197 991 
z
" id="ArialMT-73" transform="scale(0.015625)"/>
       <path d="M 1650 503 
L 1731 6 
Q 1494 -44 1306 -44 
Q 1000 -44 831 53 
Q 663 150 594 308 
Q 525 466 525 972 
L 525 2881 
L 113 2881 
L 113 3319 
L 525 3319 
L 525 4141 
L 1084 4478 
L 1084 3319 
L 1650 3319 
L 1650 2881 
L 1084 2881 
L 1084 941 
Q 1084 700 1114 631 
Q 1144 563 1211 522 
Q 1278 481 1403 481 
Q 1497 481 1650 503 
z
" id="ArialMT-74" transform="scale(0.015625)"/>
      </defs>
      <use xlink:href="#ArialMT-4e"/>
      <use x="72.216797" xlink:href="#ArialMT-75"/>
      <use x="127.832031" xlink:href="#ArialMT-6d"/>
      <use x="211.132812" xlink:href="#ArialMT-62"/>
      <use x="266.748047" xlink:href="#ArialMT-65"/>
      <use x="322.363281" xlink:href="#ArialMT-72"/>
      <use x="355.664062" xlink:href="#ArialMT-20"/>
      <use x="383.447266" xlink:href="#ArialMT-6f"/>
      <use x="439.0625" xlink:href="#ArialMT-66"/>
      <use x="466.845703" xlink:href="#ArialMT-20"/>
      <use x="494.628906" xlink:href="#ArialMT-63"/>
      <use x="544.628906" xlink:href="#ArialMT-6c"/>
      <use x="566.845703" xlink:href="#ArialMT-75"/>
      <use x="622.460938" xlink:href="#ArialMT-73"/>
      <use x="672.460938" xlink:href="#ArialMT-74"/>
      <use x="700.244141" xlink:href="#ArialMT-65"/>
      <use x="755.859375" xlink:href="#ArialMT-72"/>
      <use x="789.160156" xlink:href="#ArialMT-73"/>
     </g>
    </g>
   </g>
   <g id="matplotlib.axis_2">
    <g id="ytick_1">
     <g id="line2d_15">
      <path clip-path="url(#pd224c06bf9)" d="M 72 329.649313 
L 518.4 329.649313 
" style="fill:none;stroke:#cccccc;stroke-linecap:round;stroke-opacity:0.3;"/>
     </g>
     <g id="line2d_16"/>
     <g id="text_9">
      <!-- 0.2 -->
      <g style="fill:#262626;opacity:0.7;" transform="translate(55.27 332.154548)scale(0.07 -0.07)">
       <defs>
        <path d="M 581 0 
L 581 641 
L 1222 641 
L 1222 0 
L 581 0 
z
" id="ArialMT-2e" transform="scale(0.015625)"/>
       </defs>
       <use xlink:href="#ArialMT-30"/>
       <use x="55.615234" xlink:href="#ArialMT-2e"/>
       <use x="83.398438" xlink:href="#ArialMT-32"/>
      </g>
     </g>
    </g>
    <g id="ytick_2">
     <g id="line2d_17">
      <path clip-path="url(#pd224c06bf9)" d="M 72 286.808091 
L 518.4 286.808091 
" style="fill:none;stroke:#cccccc;stroke-linecap:round;stroke-opacity:0.3;"/>
     </g>
     <g id="line2d_18"/>
     <g id="text_10">
      <!-- 0.4 -->
      <g style="fill:#262626;opacity:0.7;" transform="translate(55.27 289.313325)scale(0.07 -0.07)">
       <use xlink:href="#ArialMT-30"/>
       <use x="55.615234" xlink:href="#ArialMT-2e"/>
       <use x="83.398438" xlink:href="#ArialMT-34"/>
      </g>
     </g>
    </g>
    <g id="ytick_3">
     <g id="line2d_19">
      <path clip-path="url(#pd224c06bf9)" d="M 72 243.966869 
L 518.4 243.966869 
" style="fill:none;stroke:#cccccc;stroke-linecap:round;stroke-opacity:0.3;"/>
     </g>
     <g id="line2d_20"/>
     <g id="text_11">
      <!-- 0.6 -->
      <g style="fill:#262626;opacity:0.7;" transform="translate(55.27 246.472103)scale(0.07 -0.07)">
       <use xlink:href="#ArialMT-30"/>
       <use x="55.615234" xlink:href="#ArialMT-2e"/>
       <use x="83.398438" xlink:href="#ArialMT-36"/>
      </g>
     </g>
    </g>
    <g id="ytick_4">
     <g id="line2d_21">
      <path clip-path="url(#pd224c06bf9)" d="M 72 201.125646 
L 518.4 201.125646 
" style="fill:none;stroke:#cccccc;stroke-linecap:round;stroke-opacity:0.3;"/>
     </g>
     <g id="line2d_22"/>
     <g id="text_12">
      <!-- 0.8 -->
      <g style="fill:#262626;opacity:0.7;" transform="translate(55.27 203.630881)scale(0.07 -0.07)">
       <use xlink:href="#ArialMT-30"/>
       <use x="55.615234" xlink:href="#ArialMT-2e"/>
       <use x="83.398438" xlink:href="#ArialMT-38"/>
      </g>
     </g>
    </g>
    <g id="ytick_5">
     <g id="line2d_23">
      <path clip-path="url(#pd224c06bf9)" d="M 72 158.284424 
L 518.4 158.284424 
" style="fill:none;stroke:#cccccc;stroke-linecap:round;stroke-opacity:0.3;"/>
     </g>
     <g id="line2d_24"/>
     <g id="text_13">
      <!-- 1.0 -->
      <g style="fill:#262626;opacity:0.7;" transform="translate(55.27 160.789658)scale(0.07 -0.07)">
       <use xlink:href="#ArialMT-31"/>
       <use x="55.615234" xlink:href="#ArialMT-2e"/>
       <use x="83.398438" xlink:href="#ArialMT-30"/>
      </g>
     </g>
    </g>
    <g id="ytick_6">
     <g id="line2d_25">
      <path clip-path="url(#pd224c06bf9)" d="M 72 115.443202 
L 518.4 115.443202 
" style="fill:none;stroke:#cccccc;stroke-linecap:round;stroke-opacity:0.3;"/>
     </g>
     <g id="line2d_26"/>
     <g id="text_14">
      <!-- 1.2 -->
      <g style="fill:#262626;opacity:0.7;" transform="translate(55.27 117.948436)scale(0.07 -0.07)">
       <use xlink:href="#ArialMT-31"/>
       <use x="55.615234" xlink:href="#ArialMT-2e"/>
       <use x="83.398438" xlink:href="#ArialMT-32"/>
      </g>
     </g>
    </g>
    <g id="ytick_7">
     <g id="line2d_27">
      <path clip-path="url(#pd224c06bf9)" d="M 72 72.601979 
L 518.4 72.601979 
" style="fill:none;stroke:#cccccc;stroke-linecap:round;stroke-opacity:0.3;"/>
     </g>
     <g id="line2d_28"/>
     <g id="text_15">
      <!-- 1.4 -->
      <g style="fill:#262626;opacity:0.7;" transform="translate(55.27 75.107214)scale(0.07 -0.07)">
       <use xlink:href="#ArialMT-31"/>
       <use x="55.615234" xlink:href="#ArialMT-2e"/>
       <use x="83.398438" xlink:href="#ArialMT-34"/>
      </g>
     </g>
    </g>
    <g id="text_16">
     <!-- KMeans cost -->
     <g style="fill:#262626;" transform="translate(49.08375 231.77)rotate(-90)scale(0.11 -0.11)">
      <defs>
       <path d="M 469 0 
L 469 4581 
L 1075 4581 
L 1075 2309 
L 3350 4581 
L 4172 4581 
L 2250 2725 
L 4256 0 
L 3456 0 
L 1825 2319 
L 1075 1588 
L 1075 0 
L 469 0 
z
" id="ArialMT-4b" transform="scale(0.015625)"/>
       <path d="M 475 0 
L 475 4581 
L 1388 4581 
L 2472 1338 
Q 2622 884 2691 659 
Q 2769 909 2934 1394 
L 4031 4581 
L 4847 4581 
L 4847 0 
L 4263 0 
L 4263 3834 
L 2931 0 
L 2384 0 
L 1059 3900 
L 1059 0 
L 475 0 
z
" id="ArialMT-4d" transform="scale(0.015625)"/>
       <path d="M 2588 409 
Q 2275 144 1986 34 
Q 1697 -75 1366 -75 
Q 819 -75 525 192 
Q 231 459 231 875 
Q 231 1119 342 1320 
Q 453 1522 633 1644 
Q 813 1766 1038 1828 
Q 1203 1872 1538 1913 
Q 2219 1994 2541 2106 
Q 2544 2222 2544 2253 
Q 2544 2597 2384 2738 
Q 2169 2928 1744 2928 
Q 1347 2928 1158 2789 
Q 969 2650 878 2297 
L 328 2372 
Q 403 2725 575 2942 
Q 747 3159 1072 3276 
Q 1397 3394 1825 3394 
Q 2250 3394 2515 3294 
Q 2781 3194 2906 3042 
Q 3031 2891 3081 2659 
Q 3109 2516 3109 2141 
L 3109 1391 
Q 3109 606 3145 398 
Q 3181 191 3288 0 
L 2700 0 
Q 2613 175 2588 409 
z
M 2541 1666 
Q 2234 1541 1622 1453 
Q 1275 1403 1131 1340 
Q 988 1278 909 1158 
Q 831 1038 831 891 
Q 831 666 1001 516 
Q 1172 366 1500 366 
Q 1825 366 2078 508 
Q 2331 650 2450 897 
Q 2541 1088 2541 1459 
L 2541 1666 
z
" id="ArialMT-61" transform="scale(0.015625)"/>
       <path d="M 422 0 
L 422 3319 
L 928 3319 
L 928 2847 
Q 1294 3394 1984 3394 
Q 2284 3394 2536 3286 
Q 2788 3178 2913 3003 
Q 3038 2828 3088 2588 
Q 3119 2431 3119 2041 
L 3119 0 
L 2556 0 
L 2556 2019 
Q 2556 2363 2490 2533 
Q 2425 2703 2258 2804 
Q 2091 2906 1866 2906 
Q 1506 2906 1245 2678 
Q 984 2450 984 1813 
L 984 0 
L 422 0 
z
" id="ArialMT-6e" transform="scale(0.015625)"/>
      </defs>
      <use xlink:href="#ArialMT-4b"/>
      <use x="66.699219" xlink:href="#ArialMT-4d"/>
      <use x="150" xlink:href="#ArialMT-65"/>
      <use x="205.615234" xlink:href="#ArialMT-61"/>
      <use x="261.230469" xlink:href="#ArialMT-6e"/>
      <use x="316.845703" xlink:href="#ArialMT-73"/>
      <use x="366.845703" xlink:href="#ArialMT-20"/>
      <use x="394.628906" xlink:href="#ArialMT-63"/>
      <use x="444.628906" xlink:href="#ArialMT-6f"/>
      <use x="500.244141" xlink:href="#ArialMT-73"/>
      <use x="550.244141" xlink:href="#ArialMT-74"/>
     </g>
    </g>
    <g id="text_17">
     <!-- 1e7 -->
     <g style="fill:#262626;" transform="translate(72 44.52)scale(0.1 -0.1)">
      <defs>
       <path d="M 303 3981 
L 303 4522 
L 3269 4522 
L 3269 4084 
Q 2831 3619 2401 2847 
Q 1972 2075 1738 1259 
Q 1569 684 1522 0 
L 944 0 
Q 953 541 1156 1306 
Q 1359 2072 1739 2783 
Q 2119 3494 2547 3981 
L 303 3981 
z
" id="ArialMT-37" transform="scale(0.015625)"/>
      </defs>
      <use xlink:href="#ArialMT-31"/>
      <use x="55.615234" xlink:href="#ArialMT-65"/>
      <use x="111.230469" xlink:href="#ArialMT-37"/>
     </g>
    </g>
   </g>
   <g id="line2d_29">
    <path clip-path="url(#pd224c06bf9)" d="M 92.290909 61.38 
L 123.507692 268.340635 
L 154.724476 307.003777 
L 185.941259 317.557147 
L 217.158042 322.120137 
L 248.374825 325.927052 
L 279.591608 329.069228 
L 310.808392 330.262725 
L 342.025175 332.074682 
L 373.241958 334.913053 
L 404.458741 335.785726 
L 435.675524 336.743344 
L 466.892308 337.35939 
L 498.109091 338.58 
" style="fill:none;stroke:#0000ff;stroke-linecap:round;stroke-width:1.75;"/>
    <defs>
     <path d="M 0 3.5 
C 0.928211 3.5 1.81853 3.131218 2.474874 2.474874 
C 3.131218 1.81853 3.5 0.928211 3.5 0 
C 3.5 -0.928211 3.131218 -1.81853 2.474874 -2.474874 
C 1.81853 -3.131218 0.928211 -3.5 0 -3.5 
C -0.928211 -3.5 -1.81853 -3.131218 -2.474874 -2.474874 
C -3.131218 -1.81853 -3.5 -0.928211 -3.5 0 
C -3.5 0.928211 -3.131218 1.81853 -2.474874 2.474874 
C -1.81853 3.131218 -0.928211 3.5 0 3.5 
z
" id="mb44d45c5fe"/>
    </defs>
    <g clip-path="url(#pd224c06bf9)">
     <use style="fill:#0000ff;" x="92.290909" xlink:href="#mb44d45c5fe" y="61.38"/>
     <use style="fill:#0000ff;" x="123.507692" xlink:href="#mb44d45c5fe" y="268.340635"/>
     <use style="fill:#0000ff;" x="154.724476" xlink:href="#mb44d45c5fe" y="307.003777"/>
     <use style="fill:#0000ff;" x="185.941259" xlink:href="#mb44d45c5fe" y="317.557147"/>
     <use style="fill:#0000ff;" x="217.158042" xlink:href="#mb44d45c5fe" y="322.120137"/>
     <use style="fill:#0000ff;" x="248.374825" xlink:href="#mb44d45c5fe" y="325.927052"/>
     <use style="fill:#0000ff;" x="279.591608" xlink:href="#mb44d45c5fe" y="329.069228"/>
     <use style="fill:#0000ff;" x="310.808392" xlink:href="#mb44d45c5fe" y="330.262725"/>
     <use style="fill:#0000ff;" x="342.025175" xlink:href="#mb44d45c5fe" y="332.074682"/>
     <use style="fill:#0000ff;" x="373.241958" xlink:href="#mb44d45c5fe" y="334.913053"/>
     <use style="fill:#0000ff;" x="404.458741" xlink:href="#mb44d45c5fe" y="335.785726"/>
     <use style="fill:#0000ff;" x="435.675524" xlink:href="#mb44d45c5fe" y="336.743344"/>
     <use style="fill:#0000ff;" x="466.892308" xlink:href="#mb44d45c5fe" y="337.35939"/>
     <use style="fill:#0000ff;" x="498.109091" xlink:href="#mb44d45c5fe" y="338.58"/>
    </g>
   </g>
   <g id="patch_3">
    <path d="M 72 352.44 
L 72 47.52 
" style="fill:none;stroke:#cccccc;stroke-linecap:square;stroke-linejoin:miter;stroke-width:1.25;"/>
   </g>
   <g id="patch_4">
    <path d="M 518.4 352.44 
L 518.4 47.52 
" style="fill:none;stroke:#cccccc;stroke-linecap:square;stroke-linejoin:miter;stroke-width:1.25;"/>
   </g>
   <g id="patch_5">
    <path d="M 72 352.44 
L 518.4 352.44 
" style="fill:none;stroke:#cccccc;stroke-linecap:square;stroke-linejoin:miter;stroke-width:1.25;"/>
   </g>
   <g id="patch_6">
    <path d="M 72 47.52 
L 518.4 47.52 
" style="fill:none;stroke:#cccccc;stroke-linecap:square;stroke-linejoin:miter;stroke-width:1.25;"/>
   </g>
  </g>
 </g>
 <defs>
  <clipPath id="pd224c06bf9">
   <rect height="304.92" width="446.4" x="72" y="47.52"/>
  </clipPath>
 </defs>
</svg>
