<?xml version="1.0" encoding="utf-8" standalone="no"?>
<!DOCTYPE svg PUBLIC "-//W3C//DTD SVG 1.1//EN"
  "http://www.w3.org/Graphics/SVG/1.1/DTD/svg11.dtd">
<svg xmlns:xlink="http://www.w3.org/1999/xlink" width="460.8pt" height="345.6pt" viewBox="0 0 460.8 345.6" xmlns="http://www.w3.org/2000/svg" version="1.1">
 <metadata>
  <rdf:RDF xmlns:dc="http://purl.org/dc/elements/1.1/" xmlns:cc="http://creativecommons.org/ns#" xmlns:rdf="http://www.w3.org/1999/02/22-rdf-syntax-ns#">
   <cc:Work>
    <dc:type rdf:resource="http://purl.org/dc/dcmitype/StillImage"/>
    <dc:date>2022-03-02T10:47:15.070647</dc:date>
    <dc:format>image/svg+xml</dc:format>
    <dc:creator>
     <cc:Agent>
      <dc:title>Matplotlib v3.5.1, https://matplotlib.org/</dc:title>
     </cc:Agent>
    </dc:creator>
   </cc:Work>
  </rdf:RDF>
 </metadata>
 <defs>
  <style type="text/css">*{stroke-linejoin: round; stroke-linecap: butt}</style>
 </defs>
 <g id="figure_1">
  <g id="patch_1">
   <path d="M 0 345.6 
L 460.8 345.6 
L 460.8 0 
L 0 0 
z
" style="fill: #ffffff"/>
  </g>
  <g id="axes_1">
   <g id="patch_2">
    <path d="M 57.6 307.584 
L 414.72 307.584 
L 414.72 41.472 
L 57.6 41.472 
z
" style="fill: #e6e6e6"/>
   </g>
   <g id="matplotlib.axis_1">
    <g id="xtick_1">
     <g id="line2d_1">
      <path d="M 73.832727 307.584 
L 73.832727 41.472 
" clip-path="url(#p1323e23297)" style="fill: none; stroke: #ffffff; stroke-width: 0.8; stroke-linecap: round"/>
     </g>
     <g id="text_1">
      <!-- 0 -->
      <g style="fill: #262626; opacity: 0.7" transform="translate(71.886399 319.594469)scale(0.07 -0.07)">
       <defs>
        <path id="ArialMT-30" d="M 266 2259 
Q 266 3072 433 3567 
Q 600 4063 929 4331 
Q 1259 4600 1759 4600 
Q 2128 4600 2406 4451 
Q 2684 4303 2865 4023 
Q 3047 3744 3150 3342 
Q 3253 2941 3253 2259 
Q 3253 1453 3087 958 
Q 2922 463 2592 192 
Q 2263 -78 1759 -78 
Q 1097 -78 719 397 
Q 266 969 266 2259 
z
M 844 2259 
Q 844 1131 1108 757 
Q 1372 384 1759 384 
Q 2147 384 2411 759 
Q 2675 1134 2675 2259 
Q 2675 3391 2411 3762 
Q 2147 4134 1753 4134 
Q 1366 4134 1134 3806 
Q 844 3388 844 2259 
z
" transform="scale(0.015625)"/>
       </defs>
       <use xlink:href="#ArialMT-30"/>
      </g>
     </g>
    </g>
    <g id="xtick_2">
     <g id="line2d_2">
      <path d="M 126.497914 307.584 
L 126.497914 41.472 
" clip-path="url(#p1323e23297)" style="fill: none; stroke: #ffffff; stroke-width: 0.8; stroke-linecap: round"/>
     </g>
     <g id="text_2">
      <!-- 2000 -->
      <g style="fill: #262626; opacity: 0.7" transform="translate(118.712602 319.594469)scale(0.07 -0.07)">
       <defs>
        <path id="ArialMT-32" d="M 3222 541 
L 3222 0 
L 194 0 
Q 188 203 259 391 
Q 375 700 629 1000 
Q 884 1300 1366 1694 
Q 2113 2306 2375 2664 
Q 2638 3022 2638 3341 
Q 2638 3675 2398 3904 
Q 2159 4134 1775 4134 
Q 1369 4134 1125 3890 
Q 881 3647 878 3216 
L 300 3275 
Q 359 3922 746 4261 
Q 1134 4600 1788 4600 
Q 2447 4600 2831 4234 
Q 3216 3869 3216 3328 
Q 3216 3053 3103 2787 
Q 2991 2522 2730 2228 
Q 2469 1934 1863 1422 
Q 1356 997 1212 845 
Q 1069 694 975 541 
L 3222 541 
z
" transform="scale(0.015625)"/>
       </defs>
       <use xlink:href="#ArialMT-32"/>
       <use xlink:href="#ArialMT-30" x="55.615234"/>
       <use xlink:href="#ArialMT-30" x="111.230469"/>
       <use xlink:href="#ArialMT-30" x="166.845703"/>
      </g>
     </g>
    </g>
    <g id="xtick_3">
     <g id="line2d_3">
      <path d="M 179.163101 307.584 
L 179.163101 41.472 
" clip-path="url(#p1323e23297)" style="fill: none; stroke: #ffffff; stroke-width: 0.8; stroke-linecap: round"/>
     </g>
     <g id="text_3">
      <!-- 4000 -->
      <g style="fill: #262626; opacity: 0.7" transform="translate(171.377789 319.594469)scale(0.07 -0.07)">
       <defs>
        <path id="ArialMT-34" d="M 2069 0 
L 2069 1097 
L 81 1097 
L 81 1613 
L 2172 4581 
L 2631 4581 
L 2631 1613 
L 3250 1613 
L 3250 1097 
L 2631 1097 
L 2631 0 
L 2069 0 
z
M 2069 1613 
L 2069 3678 
L 634 1613 
L 2069 1613 
z
" transform="scale(0.015625)"/>
       </defs>
       <use xlink:href="#ArialMT-34"/>
       <use xlink:href="#ArialMT-30" x="55.615234"/>
       <use xlink:href="#ArialMT-30" x="111.230469"/>
       <use xlink:href="#ArialMT-30" x="166.845703"/>
      </g>
     </g>
    </g>
    <g id="xtick_4">
     <g id="line2d_4">
      <path d="M 231.828288 307.584 
L 231.828288 41.472 
" clip-path="url(#p1323e23297)" style="fill: none; stroke: #ffffff; stroke-width: 0.8; stroke-linecap: round"/>
     </g>
     <g id="text_4">
      <!-- 6000 -->
      <g style="fill: #262626; opacity: 0.7" transform="translate(224.042976 319.594469)scale(0.07 -0.07)">
       <defs>
        <path id="ArialMT-36" d="M 3184 3459 
L 2625 3416 
Q 2550 3747 2413 3897 
Q 2184 4138 1850 4138 
Q 1581 4138 1378 3988 
Q 1113 3794 959 3422 
Q 806 3050 800 2363 
Q 1003 2672 1297 2822 
Q 1591 2972 1913 2972 
Q 2475 2972 2870 2558 
Q 3266 2144 3266 1488 
Q 3266 1056 3080 686 
Q 2894 316 2569 119 
Q 2244 -78 1831 -78 
Q 1128 -78 684 439 
Q 241 956 241 2144 
Q 241 3472 731 4075 
Q 1159 4600 1884 4600 
Q 2425 4600 2770 4297 
Q 3116 3994 3184 3459 
z
M 888 1484 
Q 888 1194 1011 928 
Q 1134 663 1356 523 
Q 1578 384 1822 384 
Q 2178 384 2434 671 
Q 2691 959 2691 1453 
Q 2691 1928 2437 2201 
Q 2184 2475 1800 2475 
Q 1419 2475 1153 2201 
Q 888 1928 888 1484 
z
" transform="scale(0.015625)"/>
       </defs>
       <use xlink:href="#ArialMT-36"/>
       <use xlink:href="#ArialMT-30" x="55.615234"/>
       <use xlink:href="#ArialMT-30" x="111.230469"/>
       <use xlink:href="#ArialMT-30" x="166.845703"/>
      </g>
     </g>
    </g>
    <g id="xtick_5">
     <g id="line2d_5">
      <path d="M 284.493475 307.584 
L 284.493475 41.472 
" clip-path="url(#p1323e23297)" style="fill: none; stroke: #ffffff; stroke-width: 0.8; stroke-linecap: round"/>
     </g>
     <g id="text_5">
      <!-- 8000 -->
      <g style="fill: #262626; opacity: 0.7" transform="translate(276.708163 319.594469)scale(0.07 -0.07)">
       <defs>
        <path id="ArialMT-38" d="M 1131 2484 
Q 781 2613 612 2850 
Q 444 3088 444 3419 
Q 444 3919 803 4259 
Q 1163 4600 1759 4600 
Q 2359 4600 2725 4251 
Q 3091 3903 3091 3403 
Q 3091 3084 2923 2848 
Q 2756 2613 2416 2484 
Q 2838 2347 3058 2040 
Q 3278 1734 3278 1309 
Q 3278 722 2862 322 
Q 2447 -78 1769 -78 
Q 1091 -78 675 323 
Q 259 725 259 1325 
Q 259 1772 486 2073 
Q 713 2375 1131 2484 
z
M 1019 3438 
Q 1019 3113 1228 2906 
Q 1438 2700 1772 2700 
Q 2097 2700 2305 2904 
Q 2513 3109 2513 3406 
Q 2513 3716 2298 3927 
Q 2084 4138 1766 4138 
Q 1444 4138 1231 3931 
Q 1019 3725 1019 3438 
z
M 838 1322 
Q 838 1081 952 856 
Q 1066 631 1291 507 
Q 1516 384 1775 384 
Q 2178 384 2440 643 
Q 2703 903 2703 1303 
Q 2703 1709 2433 1975 
Q 2163 2241 1756 2241 
Q 1359 2241 1098 1978 
Q 838 1716 838 1322 
z
" transform="scale(0.015625)"/>
       </defs>
       <use xlink:href="#ArialMT-38"/>
       <use xlink:href="#ArialMT-30" x="55.615234"/>
       <use xlink:href="#ArialMT-30" x="111.230469"/>
       <use xlink:href="#ArialMT-30" x="166.845703"/>
      </g>
     </g>
    </g>
    <g id="xtick_6">
     <g id="line2d_6">
      <path d="M 337.158662 307.584 
L 337.158662 41.472 
" clip-path="url(#p1323e23297)" style="fill: none; stroke: #ffffff; stroke-width: 0.8; stroke-linecap: round"/>
     </g>
     <g id="text_6">
      <!-- 10000 -->
      <g style="fill: #262626; opacity: 0.7" transform="translate(327.427022 319.594469)scale(0.07 -0.07)">
       <defs>
        <path id="ArialMT-31" d="M 2384 0 
L 1822 0 
L 1822 3584 
Q 1619 3391 1289 3197 
Q 959 3003 697 2906 
L 697 3450 
Q 1169 3672 1522 3987 
Q 1875 4303 2022 4600 
L 2384 4600 
L 2384 0 
z
" transform="scale(0.015625)"/>
       </defs>
       <use xlink:href="#ArialMT-31"/>
       <use xlink:href="#ArialMT-30" x="55.615234"/>
       <use xlink:href="#ArialMT-30" x="111.230469"/>
       <use xlink:href="#ArialMT-30" x="166.845703"/>
       <use xlink:href="#ArialMT-30" x="222.460938"/>
      </g>
     </g>
    </g>
    <g id="xtick_7">
     <g id="line2d_7">
      <path d="M 389.823849 307.584 
L 389.823849 41.472 
" clip-path="url(#p1323e23297)" style="fill: none; stroke: #ffffff; stroke-width: 0.8; stroke-linecap: round"/>
     </g>
     <g id="text_7">
      <!-- 12000 -->
      <g style="fill: #262626; opacity: 0.7" transform="translate(380.092209 319.594469)scale(0.07 -0.07)">
       <use xlink:href="#ArialMT-31"/>
       <use xlink:href="#ArialMT-32" x="55.615234"/>
       <use xlink:href="#ArialMT-30" x="111.230469"/>
       <use xlink:href="#ArialMT-30" x="166.845703"/>
       <use xlink:href="#ArialMT-30" x="222.460938"/>
      </g>
     </g>
    </g>
    <g id="text_8">
     <!-- Point -->
     <g style="fill: #262626" transform="translate(224.763906 332.143531)scale(0.1 -0.1)">
      <defs>
       <path id="ArialMT-50" d="M 494 0 
L 494 4581 
L 2222 4581 
Q 2678 4581 2919 4538 
Q 3256 4481 3484 4323 
Q 3713 4166 3852 3881 
Q 3991 3597 3991 3256 
Q 3991 2672 3619 2267 
Q 3247 1863 2275 1863 
L 1100 1863 
L 1100 0 
L 494 0 
z
M 1100 2403 
L 2284 2403 
Q 2872 2403 3119 2622 
Q 3366 2841 3366 3238 
Q 3366 3525 3220 3729 
Q 3075 3934 2838 4000 
Q 2684 4041 2272 4041 
L 1100 4041 
L 1100 2403 
z
" transform="scale(0.015625)"/>
       <path id="ArialMT-6f" d="M 213 1659 
Q 213 2581 725 3025 
Q 1153 3394 1769 3394 
Q 2453 3394 2887 2945 
Q 3322 2497 3322 1706 
Q 3322 1066 3130 698 
Q 2938 331 2570 128 
Q 2203 -75 1769 -75 
Q 1072 -75 642 372 
Q 213 819 213 1659 
z
M 791 1659 
Q 791 1022 1069 705 
Q 1347 388 1769 388 
Q 2188 388 2466 706 
Q 2744 1025 2744 1678 
Q 2744 2294 2464 2611 
Q 2184 2928 1769 2928 
Q 1347 2928 1069 2612 
Q 791 2297 791 1659 
z
" transform="scale(0.015625)"/>
       <path id="ArialMT-69" d="M 425 3934 
L 425 4581 
L 988 4581 
L 988 3934 
L 425 3934 
z
M 425 0 
L 425 3319 
L 988 3319 
L 988 0 
L 425 0 
z
" transform="scale(0.015625)"/>
       <path id="ArialMT-6e" d="M 422 0 
L 422 3319 
L 928 3319 
L 928 2847 
Q 1294 3394 1984 3394 
Q 2284 3394 2536 3286 
Q 2788 3178 2913 3003 
Q 3038 2828 3088 2588 
Q 3119 2431 3119 2041 
L 3119 0 
L 2556 0 
L 2556 2019 
Q 2556 2363 2490 2533 
Q 2425 2703 2258 2804 
Q 2091 2906 1866 2906 
Q 1506 2906 1245 2678 
Q 984 2450 984 1813 
L 984 0 
L 422 0 
z
" transform="scale(0.015625)"/>
       <path id="ArialMT-74" d="M 1650 503 
L 1731 6 
Q 1494 -44 1306 -44 
Q 1000 -44 831 53 
Q 663 150 594 308 
Q 525 466 525 972 
L 525 2881 
L 113 2881 
L 113 3319 
L 525 3319 
L 525 4141 
L 1084 4478 
L 1084 3319 
L 1650 3319 
L 1650 2881 
L 1084 2881 
L 1084 941 
Q 1084 700 1114 631 
Q 1144 563 1211 522 
Q 1278 481 1403 481 
Q 1497 481 1650 503 
z
" transform="scale(0.015625)"/>
      </defs>
      <use xlink:href="#ArialMT-50"/>
      <use xlink:href="#ArialMT-6f" x="66.699219"/>
      <use xlink:href="#ArialMT-69" x="122.314453"/>
      <use xlink:href="#ArialMT-6e" x="144.53125"/>
      <use xlink:href="#ArialMT-74" x="200.146484"/>
     </g>
    </g>
   </g>
   <g id="matplotlib.axis_2">
    <g id="ytick_1">
     <g id="line2d_8">
      <path d="M 57.6 265.595838 
L 414.72 265.595838 
" clip-path="url(#p1323e23297)" style="fill: none; stroke: #ffffff; stroke-width: 0.8; stroke-linecap: round"/>
     </g>
     <g id="text_9">
      <!-- 0.5 -->
      <g style="fill: #262626; opacity: 0.7" transform="translate(40.87 268.101073)scale(0.07 -0.07)">
       <defs>
        <path id="ArialMT-2e" d="M 581 0 
L 581 641 
L 1222 641 
L 1222 0 
L 581 0 
z
" transform="scale(0.015625)"/>
        <path id="ArialMT-35" d="M 266 1200 
L 856 1250 
Q 922 819 1161 601 
Q 1400 384 1738 384 
Q 2144 384 2425 690 
Q 2706 997 2706 1503 
Q 2706 1984 2436 2262 
Q 2166 2541 1728 2541 
Q 1456 2541 1237 2417 
Q 1019 2294 894 2097 
L 366 2166 
L 809 4519 
L 3088 4519 
L 3088 3981 
L 1259 3981 
L 1013 2750 
Q 1425 3038 1878 3038 
Q 2478 3038 2890 2622 
Q 3303 2206 3303 1553 
Q 3303 931 2941 478 
Q 2500 -78 1738 -78 
Q 1113 -78 717 272 
Q 322 622 266 1200 
z
" transform="scale(0.015625)"/>
       </defs>
       <use xlink:href="#ArialMT-30"/>
       <use xlink:href="#ArialMT-2e" x="55.615234"/>
       <use xlink:href="#ArialMT-35" x="83.398438"/>
      </g>
     </g>
    </g>
    <g id="ytick_2">
     <g id="line2d_9">
      <path d="M 57.6 218.968408 
L 414.72 218.968408 
" clip-path="url(#p1323e23297)" style="fill: none; stroke: #ffffff; stroke-width: 0.8; stroke-linecap: round"/>
     </g>
     <g id="text_10">
      <!-- 1.0 -->
      <g style="fill: #262626; opacity: 0.7" transform="translate(40.87 221.473642)scale(0.07 -0.07)">
       <use xlink:href="#ArialMT-31"/>
       <use xlink:href="#ArialMT-2e" x="55.615234"/>
       <use xlink:href="#ArialMT-30" x="83.398438"/>
      </g>
     </g>
    </g>
    <g id="ytick_3">
     <g id="line2d_10">
      <path d="M 57.6 172.340977 
L 414.72 172.340977 
" clip-path="url(#p1323e23297)" style="fill: none; stroke: #ffffff; stroke-width: 0.8; stroke-linecap: round"/>
     </g>
     <g id="text_11">
      <!-- 1.5 -->
      <g style="fill: #262626; opacity: 0.7" transform="translate(40.87 174.846212)scale(0.07 -0.07)">
       <use xlink:href="#ArialMT-31"/>
       <use xlink:href="#ArialMT-2e" x="55.615234"/>
       <use xlink:href="#ArialMT-35" x="83.398438"/>
      </g>
     </g>
    </g>
    <g id="ytick_4">
     <g id="line2d_11">
      <path d="M 57.6 125.713547 
L 414.72 125.713547 
" clip-path="url(#p1323e23297)" style="fill: none; stroke: #ffffff; stroke-width: 0.8; stroke-linecap: round"/>
     </g>
     <g id="text_12">
      <!-- 2.0 -->
      <g style="fill: #262626; opacity: 0.7" transform="translate(40.87 128.218781)scale(0.07 -0.07)">
       <use xlink:href="#ArialMT-32"/>
       <use xlink:href="#ArialMT-2e" x="55.615234"/>
       <use xlink:href="#ArialMT-30" x="83.398438"/>
      </g>
     </g>
    </g>
    <g id="ytick_5">
     <g id="line2d_12">
      <path d="M 57.6 79.086117 
L 414.72 79.086117 
" clip-path="url(#p1323e23297)" style="fill: none; stroke: #ffffff; stroke-width: 0.8; stroke-linecap: round"/>
     </g>
     <g id="text_13">
      <!-- 2.5 -->
      <g style="fill: #262626; opacity: 0.7" transform="translate(40.87 81.591351)scale(0.07 -0.07)">
       <use xlink:href="#ArialMT-32"/>
       <use xlink:href="#ArialMT-2e" x="55.615234"/>
       <use xlink:href="#ArialMT-35" x="83.398438"/>
      </g>
     </g>
    </g>
    <g id="text_14">
     <!-- Avg distance to 150 nearest neighbors -->
     <g style="fill: #262626" transform="translate(34.765313 259.768625)rotate(-90)scale(0.1 -0.1)">
      <defs>
       <path id="ArialMT-41" d="M -9 0 
L 1750 4581 
L 2403 4581 
L 4278 0 
L 3588 0 
L 3053 1388 
L 1138 1388 
L 634 0 
L -9 0 
z
M 1313 1881 
L 2866 1881 
L 2388 3150 
Q 2169 3728 2063 4100 
Q 1975 3659 1816 3225 
L 1313 1881 
z
" transform="scale(0.015625)"/>
       <path id="ArialMT-76" d="M 1344 0 
L 81 3319 
L 675 3319 
L 1388 1331 
Q 1503 1009 1600 663 
Q 1675 925 1809 1294 
L 2547 3319 
L 3125 3319 
L 1869 0 
L 1344 0 
z
" transform="scale(0.015625)"/>
       <path id="ArialMT-67" d="M 319 -275 
L 866 -356 
Q 900 -609 1056 -725 
Q 1266 -881 1628 -881 
Q 2019 -881 2231 -725 
Q 2444 -569 2519 -288 
Q 2563 -116 2559 434 
Q 2191 0 1641 0 
Q 956 0 581 494 
Q 206 988 206 1678 
Q 206 2153 378 2554 
Q 550 2956 876 3175 
Q 1203 3394 1644 3394 
Q 2231 3394 2613 2919 
L 2613 3319 
L 3131 3319 
L 3131 450 
Q 3131 -325 2973 -648 
Q 2816 -972 2473 -1159 
Q 2131 -1347 1631 -1347 
Q 1038 -1347 672 -1080 
Q 306 -813 319 -275 
z
M 784 1719 
Q 784 1066 1043 766 
Q 1303 466 1694 466 
Q 2081 466 2343 764 
Q 2606 1063 2606 1700 
Q 2606 2309 2336 2618 
Q 2066 2928 1684 2928 
Q 1309 2928 1046 2623 
Q 784 2319 784 1719 
z
" transform="scale(0.015625)"/>
       <path id="ArialMT-20" transform="scale(0.015625)"/>
       <path id="ArialMT-64" d="M 2575 0 
L 2575 419 
Q 2259 -75 1647 -75 
Q 1250 -75 917 144 
Q 584 363 401 755 
Q 219 1147 219 1656 
Q 219 2153 384 2558 
Q 550 2963 881 3178 
Q 1213 3394 1622 3394 
Q 1922 3394 2156 3267 
Q 2391 3141 2538 2938 
L 2538 4581 
L 3097 4581 
L 3097 0 
L 2575 0 
z
M 797 1656 
Q 797 1019 1065 703 
Q 1334 388 1700 388 
Q 2069 388 2326 689 
Q 2584 991 2584 1609 
Q 2584 2291 2321 2609 
Q 2059 2928 1675 2928 
Q 1300 2928 1048 2622 
Q 797 2316 797 1656 
z
" transform="scale(0.015625)"/>
       <path id="ArialMT-73" d="M 197 991 
L 753 1078 
Q 800 744 1014 566 
Q 1228 388 1613 388 
Q 2000 388 2187 545 
Q 2375 703 2375 916 
Q 2375 1106 2209 1216 
Q 2094 1291 1634 1406 
Q 1016 1563 777 1677 
Q 538 1791 414 1992 
Q 291 2194 291 2438 
Q 291 2659 392 2848 
Q 494 3038 669 3163 
Q 800 3259 1026 3326 
Q 1253 3394 1513 3394 
Q 1903 3394 2198 3281 
Q 2494 3169 2634 2976 
Q 2775 2784 2828 2463 
L 2278 2388 
Q 2241 2644 2061 2787 
Q 1881 2931 1553 2931 
Q 1166 2931 1000 2803 
Q 834 2675 834 2503 
Q 834 2394 903 2306 
Q 972 2216 1119 2156 
Q 1203 2125 1616 2013 
Q 2213 1853 2448 1751 
Q 2684 1650 2818 1456 
Q 2953 1263 2953 975 
Q 2953 694 2789 445 
Q 2625 197 2315 61 
Q 2006 -75 1616 -75 
Q 969 -75 630 194 
Q 291 463 197 991 
z
" transform="scale(0.015625)"/>
       <path id="ArialMT-61" d="M 2588 409 
Q 2275 144 1986 34 
Q 1697 -75 1366 -75 
Q 819 -75 525 192 
Q 231 459 231 875 
Q 231 1119 342 1320 
Q 453 1522 633 1644 
Q 813 1766 1038 1828 
Q 1203 1872 1538 1913 
Q 2219 1994 2541 2106 
Q 2544 2222 2544 2253 
Q 2544 2597 2384 2738 
Q 2169 2928 1744 2928 
Q 1347 2928 1158 2789 
Q 969 2650 878 2297 
L 328 2372 
Q 403 2725 575 2942 
Q 747 3159 1072 3276 
Q 1397 3394 1825 3394 
Q 2250 3394 2515 3294 
Q 2781 3194 2906 3042 
Q 3031 2891 3081 2659 
Q 3109 2516 3109 2141 
L 3109 1391 
Q 3109 606 3145 398 
Q 3181 191 3288 0 
L 2700 0 
Q 2613 175 2588 409 
z
M 2541 1666 
Q 2234 1541 1622 1453 
Q 1275 1403 1131 1340 
Q 988 1278 909 1158 
Q 831 1038 831 891 
Q 831 666 1001 516 
Q 1172 366 1500 366 
Q 1825 366 2078 508 
Q 2331 650 2450 897 
Q 2541 1088 2541 1459 
L 2541 1666 
z
" transform="scale(0.015625)"/>
       <path id="ArialMT-63" d="M 2588 1216 
L 3141 1144 
Q 3050 572 2676 248 
Q 2303 -75 1759 -75 
Q 1078 -75 664 370 
Q 250 816 250 1647 
Q 250 2184 428 2587 
Q 606 2991 970 3192 
Q 1334 3394 1763 3394 
Q 2303 3394 2647 3120 
Q 2991 2847 3088 2344 
L 2541 2259 
Q 2463 2594 2264 2762 
Q 2066 2931 1784 2931 
Q 1359 2931 1093 2626 
Q 828 2322 828 1663 
Q 828 994 1084 691 
Q 1341 388 1753 388 
Q 2084 388 2306 591 
Q 2528 794 2588 1216 
z
" transform="scale(0.015625)"/>
       <path id="ArialMT-65" d="M 2694 1069 
L 3275 997 
Q 3138 488 2766 206 
Q 2394 -75 1816 -75 
Q 1088 -75 661 373 
Q 234 822 234 1631 
Q 234 2469 665 2931 
Q 1097 3394 1784 3394 
Q 2450 3394 2872 2941 
Q 3294 2488 3294 1666 
Q 3294 1616 3291 1516 
L 816 1516 
Q 847 969 1125 678 
Q 1403 388 1819 388 
Q 2128 388 2347 550 
Q 2566 713 2694 1069 
z
M 847 1978 
L 2700 1978 
Q 2663 2397 2488 2606 
Q 2219 2931 1791 2931 
Q 1403 2931 1139 2672 
Q 875 2413 847 1978 
z
" transform="scale(0.015625)"/>
       <path id="ArialMT-72" d="M 416 0 
L 416 3319 
L 922 3319 
L 922 2816 
Q 1116 3169 1280 3281 
Q 1444 3394 1641 3394 
Q 1925 3394 2219 3213 
L 2025 2691 
Q 1819 2813 1613 2813 
Q 1428 2813 1281 2702 
Q 1134 2591 1072 2394 
Q 978 2094 978 1738 
L 978 0 
L 416 0 
z
" transform="scale(0.015625)"/>
       <path id="ArialMT-68" d="M 422 0 
L 422 4581 
L 984 4581 
L 984 2938 
Q 1378 3394 1978 3394 
Q 2347 3394 2619 3248 
Q 2891 3103 3008 2847 
Q 3125 2591 3125 2103 
L 3125 0 
L 2563 0 
L 2563 2103 
Q 2563 2525 2380 2717 
Q 2197 2909 1863 2909 
Q 1613 2909 1392 2779 
Q 1172 2650 1078 2428 
Q 984 2206 984 1816 
L 984 0 
L 422 0 
z
" transform="scale(0.015625)"/>
       <path id="ArialMT-62" d="M 941 0 
L 419 0 
L 419 4581 
L 981 4581 
L 981 2947 
Q 1338 3394 1891 3394 
Q 2197 3394 2470 3270 
Q 2744 3147 2920 2923 
Q 3097 2700 3197 2384 
Q 3297 2069 3297 1709 
Q 3297 856 2875 390 
Q 2453 -75 1863 -75 
Q 1275 -75 941 416 
L 941 0 
z
M 934 1684 
Q 934 1088 1097 822 
Q 1363 388 1816 388 
Q 2184 388 2453 708 
Q 2722 1028 2722 1663 
Q 2722 2313 2464 2622 
Q 2206 2931 1841 2931 
Q 1472 2931 1203 2611 
Q 934 2291 934 1684 
z
" transform="scale(0.015625)"/>
      </defs>
      <use xlink:href="#ArialMT-41"/>
      <use xlink:href="#ArialMT-76" x="64.949219"/>
      <use xlink:href="#ArialMT-67" x="114.949219"/>
      <use xlink:href="#ArialMT-20" x="170.564453"/>
      <use xlink:href="#ArialMT-64" x="198.347656"/>
      <use xlink:href="#ArialMT-69" x="253.962891"/>
      <use xlink:href="#ArialMT-73" x="276.179688"/>
      <use xlink:href="#ArialMT-74" x="326.179688"/>
      <use xlink:href="#ArialMT-61" x="353.962891"/>
      <use xlink:href="#ArialMT-6e" x="409.578125"/>
      <use xlink:href="#ArialMT-63" x="465.193359"/>
      <use xlink:href="#ArialMT-65" x="515.193359"/>
      <use xlink:href="#ArialMT-20" x="570.808594"/>
      <use xlink:href="#ArialMT-74" x="598.591797"/>
      <use xlink:href="#ArialMT-6f" x="626.375"/>
      <use xlink:href="#ArialMT-20" x="681.990234"/>
      <use xlink:href="#ArialMT-31" x="709.773438"/>
      <use xlink:href="#ArialMT-35" x="765.388672"/>
      <use xlink:href="#ArialMT-30" x="821.003906"/>
      <use xlink:href="#ArialMT-20" x="876.619141"/>
      <use xlink:href="#ArialMT-6e" x="904.402344"/>
      <use xlink:href="#ArialMT-65" x="960.017578"/>
      <use xlink:href="#ArialMT-61" x="1015.632812"/>
      <use xlink:href="#ArialMT-72" x="1071.248047"/>
      <use xlink:href="#ArialMT-65" x="1104.548828"/>
      <use xlink:href="#ArialMT-73" x="1160.164062"/>
      <use xlink:href="#ArialMT-74" x="1210.164062"/>
      <use xlink:href="#ArialMT-20" x="1237.947266"/>
      <use xlink:href="#ArialMT-6e" x="1265.730469"/>
      <use xlink:href="#ArialMT-65" x="1321.345703"/>
      <use xlink:href="#ArialMT-69" x="1376.960938"/>
      <use xlink:href="#ArialMT-67" x="1399.177734"/>
      <use xlink:href="#ArialMT-68" x="1454.792969"/>
      <use xlink:href="#ArialMT-62" x="1510.408203"/>
      <use xlink:href="#ArialMT-6f" x="1566.023438"/>
      <use xlink:href="#ArialMT-72" x="1621.638672"/>
      <use xlink:href="#ArialMT-73" x="1654.939453"/>
     </g>
    </g>
   </g>
   <g id="line2d_13">
    <path d="M 73.832727 295.488 
L 74.069721 294.445967 
L 74.254049 294.359756 
L 74.438377 294.018392 
L 74.67537 293.677062 
L 74.780701 293.640324 
L 74.965029 293.309054 
L 75.149357 293.022773 
L 75.412683 291.953996 
L 75.518013 291.804831 
L 75.676009 291.479611 
L 75.755007 291.381816 
L 75.965667 290.771785 
L 76.044665 290.613994 
L 76.228993 290.189343 
L 76.307991 290.11528 
L 76.465987 289.246348 
L 76.623982 288.20914 
L 76.834643 287.504422 
L 76.966306 286.437752 
L 76.992638 286.368758 
L 77.361295 282.150257 
L 77.387627 282.128057 
L 77.756284 277.430177 
L 77.782616 277.392611 
L 78.12494 272.664988 
L 78.73059 246.28299 
L 79.336239 245.117392 
L 79.494235 244.759128 
L 79.757561 243.682466 
L 79.810226 243.553699 
L 79.941889 242.965402 
L 79.994554 242.916658 
L 80.15255 241.667245 
L 80.810865 236.038913 
L 80.889862 235.9364 
L 81.047858 235.796077 
L 81.469179 235.161066 
L 81.495512 235.149234 
L 81.653508 234.827965 
L 81.732505 234.737004 
L 81.969499 234.305972 
L 82.364488 234.103174 
L 82.548816 233.970467 
L 82.706811 233.773213 
L 82.917472 233.665852 
L 84.813419 232.307827 
L 85.103077 231.690844 
L 85.893055 230.506312 
L 86.103716 230.023098 
L 86.261711 229.592296 
L 86.630368 229.406139 
L 88.157658 227.203659 
L 88.394651 226.41101 
L 88.473649 226.365167 
L 88.631645 225.83924 
L 88.78964 225.599525 
L 89.000301 225.325765 
L 89.263627 225.151146 
L 89.50062 224.814895 
L 89.711281 224.388322 
L 89.948275 223.64699 
L 90.027272 223.542369 
L 90.10627 223.288716 
L 90.290598 222.867571 
L 90.316931 222.855171 
L 90.474926 222.509011 
L 90.527592 222.377794 
L 90.738252 221.931906 
L 92.23921 219.111483 
L 92.713197 216.849465 
L 92.84486 216.5358 
L 93.160851 215.576034 
L 93.345179 215.393712 
L 93.503175 215.000451 
L 93.634838 214.904791 
L 93.950829 214.597843 
L 94.846137 213.902414 
L 95.004132 213.786657 
L 96.873747 212.499134 
L 97.084407 212.274831 
L 97.400398 211.852769 
L 97.769055 211.510774 
L 97.92705 211.063111 
L 98.348372 210.873272 
L 98.875024 210.586903 
L 99.112017 210.474268 
L 99.34901 210.296102 
L 99.533339 210.22259 
L 100.007325 209.997697 
L 100.191653 209.842805 
L 100.507645 209.6558 
L 100.77097 209.445978 
L 101.113294 209.124504 
L 101.48195 208.749266 
L 101.692611 208.449836 
L 102.271928 207.574594 
L 102.640585 207.341676 
L 102.824913 207.106325 
L 103.193569 206.817094 
L 103.562225 206.517323 
L 104.062545 206.292102 
L 104.615529 205.937765 
L 104.799857 205.832689 
L 105.826828 204.918228 
L 106.011157 204.717537 
L 106.14282 204.621983 
L 106.432478 204.092254 
L 106.643139 203.985375 
L 106.880132 203.721513 
L 107.380451 203.563654 
L 107.696443 203.452932 
L 107.907103 203.208259 
L 108.196762 202.887009 
L 108.565418 202.596777 
L 108.776079 202.512146 
L 108.960407 202.418695 
L 109.539724 202.219863 
L 110.224372 201.7865 
L 110.382367 201.572678 
L 111.33034 200.931578 
L 114.937906 199.677376 
L 116.307201 199.258326 
L 117.5185 198.959952 
L 117.808158 198.867951 
L 120.704744 197.805575 
L 121.0734 197.684055 
L 121.415724 197.504171 
L 121.731715 197.384233 
L 122.100371 197.258545 
L 122.284699 197.146489 
L 122.469027 197.002391 
L 122.916682 196.838037 
L 123.180008 196.655997 
L 123.443333 196.547654 
L 125.312948 195.728343 
L 125.94493 195.537573 
L 126.497914 195.221888 
L 126.682242 195.161673 
L 127.182562 194.953364 
L 127.577551 194.708128 
L 128.630854 194.392679 
L 129.078508 194.279649 
L 130.684797 193.775319 
L 130.842792 193.690838 
L 131.580105 193.47756 
L 131.817098 193.386345 
L 132.080424 193.257127 
L 132.422748 193.13992 
L 132.686074 193.030984 
L 133.028397 192.90386 
L 135.266668 192.346028 
L 135.503661 192.269998 
L 136.214641 192.077057 
L 137.741932 191.642086 
L 141.560158 190.971421 
L 142.271138 190.859433 
L 148.617293 189.417062 
L 148.959617 189.290222 
L 150.302579 189.007732 
L 150.592237 188.853975 
L 152.356521 188.435062 
L 152.935838 188.135642 
L 153.541488 187.973214 
L 154.015475 187.897781 
L 154.673789 187.727362 
L 155.147776 187.61982 
L 155.569098 187.512258 
L 156.20108 187.331947 
L 156.991058 187.207893 
L 157.412379 187.079847 
L 157.675705 187.01659 
L 158.202357 186.888223 
L 158.465683 186.792005 
L 159.308326 186.625142 
L 160.967279 186.279557 
L 161.414933 186.185609 
L 162.310241 185.98683 
L 162.520902 185.92743 
L 162.915891 185.796753 
L 163.284547 185.666628 
L 163.890197 185.52455 
L 164.206188 185.45177 
L 164.653842 185.353307 
L 165.048831 185.254443 
L 169.762365 184.404613 
L 171.368654 184.126757 
L 179.689753 182.562337 
L 180.453398 182.393882 
L 181.401372 182.147752 
L 181.901691 182.059395 
L 189.090489 180.706214 
L 190.038462 180.418357 
L 190.775775 180.289286 
L 191.43409 180.10322 
L 192.987713 179.790791 
L 194.778329 179.280921 
L 195.067988 179.206035 
L 195.410312 179.101739 
L 195.884298 178.933471 
L 196.726941 178.74403 
L 197.12193 178.61089 
L 199.070542 178.302848 
L 199.491864 178.199532 
L 200.044848 178.073437 
L 200.624165 177.890042 
L 201.019154 177.784103 
L 201.440475 177.655542 
L 201.88813 177.532268 
L 202.362116 177.443989 
L 202.678107 177.332133 
L 203.441753 177.132673 
L 204.784715 176.791006 
L 204.916378 176.716361 
L 205.522027 176.522721 
L 205.969682 176.377268 
L 207.049318 175.871263 
L 207.207313 175.732601 
L 207.865628 175.459226 
L 208.918932 175.100852 
L 209.234923 175.012732 
L 209.866905 174.757376 
L 210.340892 174.554437 
L 210.841211 174.431505 
L 211.552191 174.101429 
L 211.762852 174.004547 
L 212.210506 173.768642 
L 212.473832 173.662272 
L 212.710825 173.527161 
L 213.105814 173.323579 
L 213.790462 172.945585 
L 214.448777 172.763521 
L 214.738435 172.647108 
L 215.159757 172.53651 
L 215.528413 172.364658 
L 215.818072 172.276753 
L 215.949734 172.175415 
L 216.160395 172.075591 
L 216.450054 171.923435 
L 216.739712 171.844292 
L 217.082036 171.740665 
L 217.687686 171.500267 
L 217.819349 171.409215 
L 218.003677 171.255307 
L 218.503996 171.144179 
L 221.821903 169.964746 
L 226.166781 167.636799 
L 226.640767 167.454975 
L 226.851428 167.363493 
L 227.27275 167.203882 
L 227.536076 167.044386 
L 227.98373 166.882281 
L 228.642045 166.603137 
L 229.089699 166.451179 
L 229.932342 166.118825 
L 230.406328 165.956042 
L 230.880315 165.73456 
L 231.090976 165.620934 
L 231.275304 165.544603 
L 231.591295 165.410918 
L 231.828288 165.298861 
L 232.828927 164.846484 
L 233.013255 164.742865 
L 233.197583 164.6477 
L 233.381911 164.584985 
L 233.539907 164.464962 
L 233.724235 164.337398 
L 235.383188 163.638928 
L 235.541184 163.557645 
L 236.015171 163.458743 
L 236.647153 163.114496 
L 237.621459 162.749472 
L 237.858452 162.618378 
L 238.095446 162.539503 
L 239.701734 161.807032 
L 239.938727 161.692303 
L 240.228386 161.57924 
L 240.491712 161.423214 
L 241.255357 160.990221 
L 241.413352 160.888376 
L 241.782009 160.750081 
L 242.045335 160.615817 
L 242.229663 160.476963 
L 242.624652 160.279666 
L 244.968253 159.62178 
L 245.178913 159.562312 
L 245.468572 159.447664 
L 246.205884 159.294942 
L 246.495543 159.166185 
L 247.285521 158.928775 
L 247.522514 158.835653 
L 248.022833 158.642166 
L 250.787756 157.504244 
L 250.945751 157.403701 
L 251.419738 157.220011 
L 251.683064 157.097789 
L 252.130718 156.865357 
L 253.658008 156.356957 
L 254.210993 156.152874 
L 254.500651 156.045762 
L 254.79031 155.942093 
L 255.053636 155.859406 
L 255.39596 155.750079 
L 255.553955 155.660883 
L 255.896279 155.540054 
L 261.847445 153.714805 
L 262.110771 153.623801 
L 262.295099 153.548271 
L 262.61109 153.427915 
L 262.821751 153.333395 
L 263.453733 153.129938 
L 265.665671 152.331248 
L 265.823667 152.277567 
L 267.350957 151.859252 
L 267.798611 151.765071 
L 268.325263 151.597809 
L 270.32654 150.89388 
L 270.616199 150.775969 
L 272.591143 150.19689 
L 272.801804 150.147339 
L 274.013103 149.825473 
L 274.355427 149.695771 
L 276.01438 149.232935 
L 276.277706 149.145502 
L 276.646363 149.033856 
L 279.753609 148.123473 
L 280.095932 148.000896 
L 280.99124 147.784029 
L 281.70222 147.612771 
L 282.781857 147.359593 
L 282.992518 147.311445 
L 283.72983 147.087587 
L 283.966824 146.960354 
L 284.519808 146.858385 
L 284.783134 146.64763 
L 285.204455 146.506646 
L 287.311063 145.866618 
L 287.837715 145.726457 
L 289.996987 145.058702 
L 290.602637 144.928141 
L 291.44528 144.723007 
L 291.708606 144.646703 
L 292.235258 144.494276 
L 292.577582 144.419002 
L 293.104233 144.303591 
L 297.054123 143.461579 
L 297.528109 143.346285 
L 298.818406 143.047289 
L 300.056038 142.758627 
L 300.68802 142.612849 
L 301.241005 142.487869 
L 301.530663 142.434544 
L 301.925652 142.333119 
L 302.162646 142.261142 
L 305.111896 141.597676 
L 305.348889 141.519715 
L 306.902512 141.152664 
L 307.086841 141.103226 
L 307.850486 140.925765 
L 317.145891 138.855572 
L 317.409217 138.781984 
L 318.0412 138.620747 
L 318.409856 138.510958 
L 318.989173 138.316552 
L 321.543434 137.760546 
L 321.80676 137.70537 
L 322.359745 137.57523 
L 323.01806 137.397503 
L 323.281386 137.346186 
L 324.255692 137.148151 
L 324.756011 137.004528 
L 325.25633 136.923871 
L 326.019975 136.730232 
L 326.888951 136.458397 
L 327.573598 136.329243 
L 327.915922 136.23689 
L 328.784898 136.056255 
L 329.074556 136.011293 
L 329.706538 135.892123 
L 331.971142 135.343617 
L 332.392463 135.251339 
L 333.287771 135.08438 
L 338.211966 133.967923 
L 338.580622 133.858973 
L 339.607594 133.637944 
L 339.844587 133.544711 
L 342.082857 133.004315 
L 342.71484 132.851234 
L 342.951833 132.804709 
L 343.952472 132.668208 
L 352.879221 130.628074 
L 353.353207 130.471497 
L 354.248516 130.251561 
L 354.511842 130.151644 
L 355.222822 129.973075 
L 355.40715 129.903927 
L 356.908108 129.452073 
L 357.066103 129.378764 
L 357.513757 129.268277 
L 358.040409 129.135489 
L 358.25107 129.092482 
L 359.093713 128.893109 
L 365.96652 126.159776 
L 366.703832 125.739467 
L 367.704471 125.309192 
L 367.915132 125.192587 
L 368.178458 125.075077 
L 368.415451 124.911019 
L 369.179096 124.549882 
L 369.468755 124.315133 
L 370.153402 123.785201 
L 370.416728 123.63161 
L 370.548391 123.518919 
L 370.811717 123.282313 
L 370.890715 123.219178 
L 371.075043 123.038115 
L 371.312036 122.931462 
L 371.470032 122.801501 
L 371.786023 122.596474 
L 371.917686 122.463409 
L 372.233677 122.144244 
L 372.418005 122.003234 
L 372.628666 121.862301 
L 372.997322 121.571884 
L 373.155318 121.508088 
L 373.313313 121.249376 
L 373.497641 121.140319 
L 373.971628 120.646094 
L 374.103291 120.479485 
L 374.471947 119.78788 
L 374.629943 119.478222 
L 374.866936 119.296002 
L 375.024932 118.975208 
L 375.367256 118.746982 
L 375.525251 118.484075 
L 375.709579 118.208069 
L 375.788577 118.117289 
L 376.051903 117.811157 
L 376.236231 117.356541 
L 376.815548 116.817177 
L 377.052542 116.578328 
L 377.710856 115.429557 
L 377.842519 115.37054 
L 378.158511 114.677892 
L 378.474502 114.3074 
L 378.606165 114.079434 
L 378.922156 113.774722 
L 379.106484 113.541121 
L 379.343477 113.342978 
L 379.791131 112.93058 
L 379.975459 112.77699 
L 380.159788 112.525478 
L 380.265118 112.377895 
L 380.554777 112.03029 
L 380.68644 111.935423 
L 381.239424 111.164871 
L 381.39742 111.035865 
L 381.766076 110.577373 
L 381.924071 110.421106 
L 382.1084 110.339954 
L 382.31906 109.969186 
L 382.477056 109.860962 
L 382.845712 109.158518 
L 382.92471 109.045799 
L 383.425029 108.542639 
L 383.688355 107.982695 
L 383.820018 107.866643 
L 384.320337 107.223936 
L 384.452 107.108544 
L 384.636329 106.880057 
L 384.925987 106.462484 
L 385.16298 106.205423 
L 385.926626 105.496269 
L 386.084621 105.302621 
L 386.295282 105.157405 
L 386.37428 104.991354 
L 386.58494 104.549424 
L 388.796878 102.12889 
L 388.928541 102.091092 
L 389.112869 101.664822 
L 389.402528 101.105055 
L 389.823849 100.526825 
L 389.981845 100.401475 
L 390.245171 100.111708 
L 390.297836 100.078545 
L 390.455832 99.788266 
L 390.534829 99.763518 
L 390.719158 99.266983 
L 390.929818 98.766597 
L 391.087814 98.529626 
L 391.298475 98.130566 
L 391.561801 97.777071 
L 391.851459 97.591851 
L 392.009455 97.3209 
L 392.483441 96.944095 
L 392.588772 96.889677 
L 392.720435 96.557116 
L 393.089091 95.985594 
L 393.141756 95.945649 
L 393.273419 95.764078 
L 393.642076 95.374332 
L 393.800071 95.086847 
L 394.010732 94.908039 
L 394.221393 94.223315 
L 394.511051 93.552479 
L 394.642714 93.220931 
L 394.827042 92.819852 
L 395.61702 91.599947 
L 395.748683 91.068977 
L 395.854013 90.959255 
L 396.038342 90.362034 
L 396.249002 89.799018 
L 397.14431 84.893655 
L 397.381304 82.849232 
L 397.407636 82.763918 
L 397.723628 78.019275 
L 397.934288 75.55956 
L 398.092284 72.857923 
L 398.276612 69.705105 
L 398.487273 53.568 
L 398.487273 53.568 
" clip-path="url(#p1323e23297)" style="fill: none; stroke: #1f77b4; stroke-width: 1.5; stroke-linecap: round"/>
   </g>
   <g id="patch_3">
    <path d="M 57.6 307.584 
L 57.6 41.472 
" style="fill: none; stroke: #ffffff; stroke-width: 0.8; stroke-linejoin: miter; stroke-linecap: square"/>
   </g>
   <g id="patch_4">
    <path d="M 414.72 307.584 
L 414.72 41.472 
" style="fill: none; stroke: #ffffff; stroke-width: 0.8; stroke-linejoin: miter; stroke-linecap: square"/>
   </g>
   <g id="patch_5">
    <path d="M 57.6 307.584 
L 414.72 307.584 
" style="fill: none; stroke: #ffffff; stroke-width: 0.8; stroke-linejoin: miter; stroke-linecap: square"/>
   </g>
   <g id="patch_6">
    <path d="M 57.6 41.472 
L 414.72 41.472 
" style="fill: none; stroke: #ffffff; stroke-width: 0.8; stroke-linejoin: miter; stroke-linecap: square"/>
   </g>
  </g>
 </g>
 <defs>
  <clipPath id="p1323e23297">
   <rect x="57.6" y="41.472" width="357.12" height="266.112"/>
  </clipPath>
 </defs>
</svg>
